<mxfile host="app.diagrams.net" agent="Mozilla/5.0 (Macintosh; Intel Mac OS X 10_15_7) AppleWebKit/537.36 (KHTML, like Gecko) Chrome/135.0.0.0 Safari/537.36" version="26.2.14">
  <diagram name="ER Diagram" id="0">
    <mxGraphModel dx="2570" dy="2271" grid="1" gridSize="10" guides="1" tooltips="1" connect="1" arrows="1" fold="1" page="1" pageScale="1" pageWidth="850" pageHeight="1100" math="0" shadow="0">
      <root>
        <mxCell id="0" />
        <mxCell id="1" parent="0" />
        <mxCell id="10" value="USER" style="shape=rectangle;whiteSpace=wrap;html=1;" parent="1" vertex="1">
          <mxGeometry x="-300" y="-30" width="120" height="60" as="geometry" />
        </mxCell>
        <mxCell id="11" value="ACCOUNT" style="shape=rectangle;whiteSpace=wrap;html=1;" parent="1" vertex="1">
          <mxGeometry x="210" y="-210" width="120" height="60" as="geometry" />
        </mxCell>
        <mxCell id="12" value="API_KEY" style="shape=rectangle;whiteSpace=wrap;html=1;" parent="1" vertex="1">
          <mxGeometry x="440" y="20" width="120" height="60" as="geometry" />
        </mxCell>
        <mxCell id="13" value="FORM_DEFINITION" style="shape=rectangle;whiteSpace=wrap;html=1;" parent="1" vertex="1">
          <mxGeometry x="-330" y="220" width="150" height="60" as="geometry" />
        </mxCell>
        <mxCell id="14" value="CREDIT_TRANSACTION" style="shape=rectangle;whiteSpace=wrap;html=1;" parent="1" vertex="1">
          <mxGeometry x="-280" y="-300" width="190" height="60" as="geometry" />
        </mxCell>
        <mxCell id="15" value="PLAN" style="shape=rectangle;whiteSpace=wrap;html=1;" parent="1" vertex="1">
          <mxGeometry x="500" y="-220" width="120" height="60" as="geometry" />
        </mxCell>
        <mxCell id="16" value="FORM_PUBLICATION" style="shape=rectangle;whiteSpace=wrap;html=1;" parent="1" vertex="1">
          <mxGeometry x="-400" y="450" width="170" height="60" as="geometry" />
        </mxCell>
        <mxCell id="17" value="FORM_SUBMISSION" style="shape=rectangle;whiteSpace=wrap;html=1;" parent="1" vertex="1">
          <mxGeometry x="180" y="270" width="150" height="60" as="geometry" />
        </mxCell>
        <mxCell id="100" value="SUBMISSION_DATA" style="shape=rectangle;whiteSpace=wrap;html=1;strokeWidth=3;" parent="1" vertex="1">
          <mxGeometry x="460" y="340" width="170" height="60" as="geometry" />
        </mxCell>
        <mxCell id="101" value="EMAIL_VALIDATION" style="shape=rectangle;whiteSpace=wrap;html=1;strokeWidth=3;" parent="1" vertex="1">
          <mxGeometry x="-140" y="530" width="160" height="60" as="geometry" />
        </mxCell>
        <mxCell id="200" value="1:N" style="endArrow=none;" parent="1" source="10" target="11" edge="1">
          <mxGeometry relative="1" as="geometry" />
        </mxCell>
        <mxCell id="201" value="1:N" style="endArrow=none;" parent="1" source="10" target="12" edge="1">
          <mxGeometry relative="1" as="geometry" />
        </mxCell>
        <mxCell id="202" value="1:N" style="endArrow=none;" parent="1" source="11" target="13" edge="1">
          <mxGeometry relative="1" as="geometry" />
        </mxCell>
        <mxCell id="203" value="1:N" style="endArrow=none;" parent="1" source="11" target="14" edge="1">
          <mxGeometry relative="1" as="geometry" />
        </mxCell>
        <mxCell id="204" value="1:N" style="endArrow=none;" parent="1" source="15" target="11" edge="1">
          <mxGeometry relative="1" as="geometry" />
        </mxCell>
        <mxCell id="205" value="1:1" style="endArrow=none;" parent="1" source="13" target="16" edge="1">
          <mxGeometry relative="1" as="geometry" />
        </mxCell>
        <mxCell id="206" value="1:N" style="endArrow=none;" parent="1" source="13" target="17" edge="1">
          <mxGeometry relative="1" as="geometry" />
        </mxCell>
        <mxCell id="207" value="1:N" style="endArrow=none;" parent="1" source="17" target="100" edge="1">
          <mxGeometry relative="1" as="geometry" />
        </mxCell>
        <mxCell id="208" value="1:1" style="endArrow=none;" parent="1" source="17" target="101" edge="1">
          <mxGeometry relative="1" as="geometry" />
        </mxCell>
        <mxCell id="209" value="1:N" style="endArrow=none;" parent="1" source="12" target="13" edge="1">
          <mxGeometry relative="1" as="geometry" />
        </mxCell>
        <mxCell id="210" value="1:N" style="endArrow=none;" parent="1" source="12" target="17" edge="1">
          <mxGeometry relative="1" as="geometry" />
        </mxCell>
        <mxCell id="tz6h5x7sEr2cUSnCpIj5-210" value="email" style="ellipse;fillColor=#fff2cc;strokeColor=#d6b656;align=left;spacingLeft=4;fontStyle=4;textDecoration=underline;" vertex="1" parent="1">
          <mxGeometry x="-410" y="-30" width="100" height="20" as="geometry" />
        </mxCell>
        <mxCell id="tz6h5x7sEr2cUSnCpIj5-211" value="cellnumber" style="ellipse;fillColor=#fff2cc;strokeColor=#d6b656;align=left;spacingLeft=4;" vertex="1" parent="1">
          <mxGeometry x="-410" y="-10" width="100" height="20" as="geometry" />
        </mxCell>
        <mxCell id="tz6h5x7sEr2cUSnCpIj5-212" value="passwordHash" style="ellipse;fillColor=#fff2cc;strokeColor=#d6b656;align=left;spacingLeft=4;" vertex="1" parent="1">
          <mxGeometry x="-410" y="10" width="100" height="20" as="geometry" />
        </mxCell>
        <mxCell id="tz6h5x7sEr2cUSnCpIj5-213" value="firstName" style="ellipse;fillColor=#fff2cc;strokeColor=#d6b656;align=left;spacingLeft=4;" vertex="1" parent="1">
          <mxGeometry x="-410" y="30" width="100" height="20" as="geometry" />
        </mxCell>
        <mxCell id="tz6h5x7sEr2cUSnCpIj5-214" value="lastName" style="ellipse;fillColor=#fff2cc;strokeColor=#d6b656;align=left;spacingLeft=4;" vertex="1" parent="1">
          <mxGeometry x="-410" y="50" width="100" height="20" as="geometry" />
        </mxCell>
        <mxCell id="tz6h5x7sEr2cUSnCpIj5-215" value="registrationDate" style="ellipse;fillColor=#fff2cc;strokeColor=#d6b656;align=left;spacingLeft=4;" vertex="1" parent="1">
          <mxGeometry x="-410" y="70" width="100" height="20" as="geometry" />
        </mxCell>
        <mxCell id="tz6h5x7sEr2cUSnCpIj5-216" value="role" style="ellipse;fillColor=#fff2cc;strokeColor=#d6b656;align=left;spacingLeft=4;" vertex="1" parent="1">
          <mxGeometry x="-410" y="90" width="100" height="20" as="geometry" />
        </mxCell>
        <mxCell id="tz6h5x7sEr2cUSnCpIj5-217" value="accountId" style="ellipse;fillColor=#fff2cc;strokeColor=#d6b656;align=left;spacingLeft=4;fontStyle=4;textDecoration=underline;" vertex="1" parent="1">
          <mxGeometry x="220" y="-340" width="100" height="20" as="geometry" />
        </mxCell>
        <mxCell id="tz6h5x7sEr2cUSnCpIj5-218" value="planId" style="ellipse;fillColor=#fff2cc;strokeColor=#d6b656;align=left;spacingLeft=4;" vertex="1" parent="1">
          <mxGeometry x="220" y="-320" width="100" height="20" as="geometry" />
        </mxCell>
        <mxCell id="tz6h5x7sEr2cUSnCpIj5-219" value="accountName" style="ellipse;fillColor=#fff2cc;strokeColor=#d6b656;align=left;spacingLeft=4;" vertex="1" parent="1">
          <mxGeometry x="220" y="-300" width="100" height="20" as="geometry" />
        </mxCell>
        <mxCell id="tz6h5x7sEr2cUSnCpIj5-220" value="creationDate" style="ellipse;fillColor=#fff2cc;strokeColor=#d6b656;align=left;spacingLeft=4;" vertex="1" parent="1">
          <mxGeometry x="220" y="-280" width="100" height="20" as="geometry" />
        </mxCell>
        <mxCell id="tz6h5x7sEr2cUSnCpIj5-221" value="creditBalance" style="ellipse;fillColor=#fff2cc;strokeColor=#d6b656;align=left;spacingLeft=4;" vertex="1" parent="1">
          <mxGeometry x="220" y="-260" width="100" height="20" as="geometry" />
        </mxCell>
        <mxCell id="tz6h5x7sEr2cUSnCpIj5-222" value="lastBillingDate" style="ellipse;fillColor=#fff2cc;strokeColor=#d6b656;align=left;spacingLeft=4;" vertex="1" parent="1">
          <mxGeometry x="220" y="-240" width="100" height="20" as="geometry" />
        </mxCell>
        <mxCell id="tz6h5x7sEr2cUSnCpIj5-223" value="apiKey" style="ellipse;fillColor=#fff2cc;strokeColor=#d6b656;align=left;spacingLeft=4;fontStyle=4;textDecoration=underline;" vertex="1" parent="1">
          <mxGeometry x="580" y="20" width="100" height="20" as="geometry" />
        </mxCell>
        <mxCell id="tz6h5x7sEr2cUSnCpIj5-224" value="userId" style="ellipse;fillColor=#fff2cc;strokeColor=#d6b656;align=left;spacingLeft=4;" vertex="1" parent="1">
          <mxGeometry x="580" y="40" width="100" height="20" as="geometry" />
        </mxCell>
        <mxCell id="tz6h5x7sEr2cUSnCpIj5-225" value="creationDate" style="ellipse;fillColor=#fff2cc;strokeColor=#d6b656;align=left;spacingLeft=4;" vertex="1" parent="1">
          <mxGeometry x="580" y="60" width="100" height="20" as="geometry" />
        </mxCell>
        <mxCell id="tz6h5x7sEr2cUSnCpIj5-226" value="lastUsed" style="ellipse;fillColor=#fff2cc;strokeColor=#d6b656;align=left;spacingLeft=4;" vertex="1" parent="1">
          <mxGeometry x="580" y="80" width="100" height="20" as="geometry" />
        </mxCell>
        <mxCell id="tz6h5x7sEr2cUSnCpIj5-227" value="description" style="ellipse;fillColor=#fff2cc;strokeColor=#d6b656;align=left;spacingLeft=4;" vertex="1" parent="1">
          <mxGeometry x="580" y="100" width="100" height="20" as="geometry" />
        </mxCell>
        <mxCell id="tz6h5x7sEr2cUSnCpIj5-228" value="expiration" style="ellipse;fillColor=#fff2cc;strokeColor=#d6b656;align=left;spacingLeft=4;" vertex="1" parent="1">
          <mxGeometry x="580" y="120" width="100" height="20" as="geometry" />
        </mxCell>
        <mxCell id="tz6h5x7sEr2cUSnCpIj5-229" value="formId" style="ellipse;fillColor=#fff2cc;strokeColor=#d6b656;align=left;spacingLeft=4;fontStyle=4;textDecoration=underline;" vertex="1" parent="1">
          <mxGeometry x="-450" y="220" width="100" height="20" as="geometry" />
        </mxCell>
        <mxCell id="tz6h5x7sEr2cUSnCpIj5-230" value="accountId" style="ellipse;fillColor=#fff2cc;strokeColor=#d6b656;align=left;spacingLeft=4;" vertex="1" parent="1">
          <mxGeometry x="-450" y="240" width="100" height="20" as="geometry" />
        </mxCell>
        <mxCell id="tz6h5x7sEr2cUSnCpIj5-231" value="title" style="ellipse;fillColor=#fff2cc;strokeColor=#d6b656;align=left;spacingLeft=4;" vertex="1" parent="1">
          <mxGeometry x="-450" y="260" width="100" height="20" as="geometry" />
        </mxCell>
        <mxCell id="tz6h5x7sEr2cUSnCpIj5-232" value="descriptionTextAI" style="ellipse;fillColor=#fff2cc;strokeColor=#d6b656;align=left;spacingLeft=4;" vertex="1" parent="1">
          <mxGeometry x="-450" y="280" width="100" height="20" as="geometry" />
        </mxCell>
        <mxCell id="tz6h5x7sEr2cUSnCpIj5-233" value="formSchemaJSON" style="ellipse;fillColor=#fff2cc;strokeColor=#d6b656;align=left;spacingLeft=4;" vertex="1" parent="1">
          <mxGeometry x="-450" y="300" width="100" height="20" as="geometry" />
        </mxCell>
        <mxCell id="tz6h5x7sEr2cUSnCpIj5-234" value="renderingCode" style="ellipse;fillColor=#fff2cc;strokeColor=#d6b656;align=left;spacingLeft=4;" vertex="1" parent="1">
          <mxGeometry x="-450" y="320" width="100" height="20" as="geometry" />
        </mxCell>
        <mxCell id="tz6h5x7sEr2cUSnCpIj5-235" value="creationDate" style="ellipse;fillColor=#fff2cc;strokeColor=#d6b656;align=left;spacingLeft=4;" vertex="1" parent="1">
          <mxGeometry x="-450" y="340" width="100" height="20" as="geometry" />
        </mxCell>
        <mxCell id="tz6h5x7sEr2cUSnCpIj5-236" value="lastUpdated" style="ellipse;fillColor=#fff2cc;strokeColor=#d6b656;align=left;spacingLeft=4;" vertex="1" parent="1">
          <mxGeometry x="-450" y="360" width="100" height="20" as="geometry" />
        </mxCell>
        <mxCell id="tz6h5x7sEr2cUSnCpIj5-237" value="submissionEmail" style="ellipse;fillColor=#fff2cc;strokeColor=#d6b656;align=left;spacingLeft=4;" vertex="1" parent="1">
          <mxGeometry x="-450" y="380" width="100" height="20" as="geometry" />
        </mxCell>
        <mxCell id="tz6h5x7sEr2cUSnCpIj5-238" value="transactionId" style="ellipse;fillColor=#fff2cc;strokeColor=#d6b656;align=left;spacingLeft=4;fontStyle=4;textDecoration=underline;" vertex="1" parent="1">
          <mxGeometry x="-280" y="-410" width="100" height="20" as="geometry" />
        </mxCell>
        <mxCell id="tz6h5x7sEr2cUSnCpIj5-239" value="accountId" style="ellipse;fillColor=#fff2cc;strokeColor=#d6b656;align=left;spacingLeft=4;" vertex="1" parent="1">
          <mxGeometry x="-280" y="-390" width="100" height="20" as="geometry" />
        </mxCell>
        <mxCell id="tz6h5x7sEr2cUSnCpIj5-240" value="transactionDate" style="ellipse;fillColor=#fff2cc;strokeColor=#d6b656;align=left;spacingLeft=4;" vertex="1" parent="1">
          <mxGeometry x="-280" y="-370" width="100" height="20" as="geometry" />
        </mxCell>
        <mxCell id="tz6h5x7sEr2cUSnCpIj5-241" value="amount" style="ellipse;fillColor=#fff2cc;strokeColor=#d6b656;align=left;spacingLeft=4;" vertex="1" parent="1">
          <mxGeometry x="-280" y="-350" width="100" height="20" as="geometry" />
        </mxCell>
        <mxCell id="tz6h5x7sEr2cUSnCpIj5-242" value="description" style="ellipse;fillColor=#fff2cc;strokeColor=#d6b656;align=left;spacingLeft=4;" vertex="1" parent="1">
          <mxGeometry x="-280" y="-330" width="100" height="20" as="geometry" />
        </mxCell>
        <mxCell id="tz6h5x7sEr2cUSnCpIj5-243" value="planId" style="ellipse;fillColor=#fff2cc;strokeColor=#d6b656;align=left;spacingLeft=4;fontStyle=4;textDecoration=underline;" vertex="1" parent="1">
          <mxGeometry x="520" y="-370" width="100" height="20" as="geometry" />
        </mxCell>
        <mxCell id="tz6h5x7sEr2cUSnCpIj5-244" value="planName" style="ellipse;fillColor=#fff2cc;strokeColor=#d6b656;align=left;spacingLeft=4;" vertex="1" parent="1">
          <mxGeometry x="520" y="-350" width="100" height="20" as="geometry" />
        </mxCell>
        <mxCell id="tz6h5x7sEr2cUSnCpIj5-245" value="price" style="ellipse;fillColor=#fff2cc;strokeColor=#d6b656;align=left;spacingLeft=4;" vertex="1" parent="1">
          <mxGeometry x="520" y="-330" width="100" height="20" as="geometry" />
        </mxCell>
        <mxCell id="tz6h5x7sEr2cUSnCpIj5-246" value="freeSubmissions" style="ellipse;fillColor=#fff2cc;strokeColor=#d6b656;align=left;spacingLeft=4;" vertex="1" parent="1">
          <mxGeometry x="520" y="-310" width="100" height="20" as="geometry" />
        </mxCell>
        <mxCell id="tz6h5x7sEr2cUSnCpIj5-247" value="fullHistory" style="ellipse;fillColor=#fff2cc;strokeColor=#d6b656;align=left;spacingLeft=4;" vertex="1" parent="1">
          <mxGeometry x="520" y="-290" width="100" height="20" as="geometry" />
        </mxCell>
        <mxCell id="tz6h5x7sEr2cUSnCpIj5-248" value="iframeEmbed" style="ellipse;fillColor=#fff2cc;strokeColor=#d6b656;align=left;spacingLeft=4;" vertex="1" parent="1">
          <mxGeometry x="520" y="-270" width="100" height="20" as="geometry" />
        </mxCell>
        <mxCell id="tz6h5x7sEr2cUSnCpIj5-249" value="apiAccess" style="ellipse;fillColor=#fff2cc;strokeColor=#d6b656;align=left;spacingLeft=4;" vertex="1" parent="1">
          <mxGeometry x="520" y="-250" width="100" height="20" as="geometry" />
        </mxCell>
        <mxCell id="tz6h5x7sEr2cUSnCpIj5-250" value="publicationId" style="ellipse;fillColor=#fff2cc;strokeColor=#d6b656;align=left;spacingLeft=4;fontStyle=4;textDecoration=underline;" vertex="1" parent="1">
          <mxGeometry x="-400" y="520" width="100" height="20" as="geometry" />
        </mxCell>
        <mxCell id="tz6h5x7sEr2cUSnCpIj5-251" value="formId" style="ellipse;fillColor=#fff2cc;strokeColor=#d6b656;align=left;spacingLeft=4;" vertex="1" parent="1">
          <mxGeometry x="-400" y="540" width="100" height="20" as="geometry" />
        </mxCell>
        <mxCell id="tz6h5x7sEr2cUSnCpIj5-252" value="isPublished" style="ellipse;fillColor=#fff2cc;strokeColor=#d6b656;align=left;spacingLeft=4;" vertex="1" parent="1">
          <mxGeometry x="-400" y="560" width="100" height="20" as="geometry" />
        </mxCell>
        <mxCell id="tz6h5x7sEr2cUSnCpIj5-253" value="publishLink" style="ellipse;fillColor=#fff2cc;strokeColor=#d6b656;align=left;spacingLeft=4;" vertex="1" parent="1">
          <mxGeometry x="-400" y="580" width="100" height="20" as="geometry" />
        </mxCell>
        <mxCell id="tz6h5x7sEr2cUSnCpIj5-254" value="qrCodePath" style="ellipse;fillColor=#fff2cc;strokeColor=#d6b656;align=left;spacingLeft=4;" vertex="1" parent="1">
          <mxGeometry x="-400" y="600" width="100" height="20" as="geometry" />
        </mxCell>
        <mxCell id="tz6h5x7sEr2cUSnCpIj5-255" value="submissionId" style="ellipse;fillColor=#fff2cc;strokeColor=#d6b656;align=left;spacingLeft=4;fontStyle=4;textDecoration=underline;" vertex="1" parent="1">
          <mxGeometry x="230" y="350" width="100" height="20" as="geometry" />
        </mxCell>
        <mxCell id="tz6h5x7sEr2cUSnCpIj5-256" value="formId" style="ellipse;fillColor=#fff2cc;strokeColor=#d6b656;align=left;spacingLeft=4;" vertex="1" parent="1">
          <mxGeometry x="230" y="370" width="100" height="20" as="geometry" />
        </mxCell>
        <mxCell id="tz6h5x7sEr2cUSnCpIj5-257" value="submissionDate" style="ellipse;fillColor=#fff2cc;strokeColor=#d6b656;align=left;spacingLeft=4;" vertex="1" parent="1">
          <mxGeometry x="230" y="390" width="100" height="20" as="geometry" />
        </mxCell>
        <mxCell id="tz6h5x7sEr2cUSnCpIj5-258" value="ipAddress" style="ellipse;fillColor=#fff2cc;strokeColor=#d6b656;align=left;spacingLeft=4;" vertex="1" parent="1">
          <mxGeometry x="230" y="410" width="100" height="20" as="geometry" />
        </mxCell>
        <mxCell id="tz6h5x7sEr2cUSnCpIj5-259" value="dataId" style="ellipse;fillColor=#fff2cc;strokeColor=#d6b656;align=left;spacingLeft=4;fontStyle=4;textDecoration=underline;" vertex="1" parent="1">
          <mxGeometry x="530" y="410" width="100" height="20" as="geometry" />
        </mxCell>
        <mxCell id="tz6h5x7sEr2cUSnCpIj5-260" value="submissionId" style="ellipse;fillColor=#fff2cc;strokeColor=#d6b656;align=left;spacingLeft=4;" vertex="1" parent="1">
          <mxGeometry x="530" y="430" width="100" height="20" as="geometry" />
        </mxCell>
        <mxCell id="tz6h5x7sEr2cUSnCpIj5-261" value="fieldName" style="ellipse;fillColor=#fff2cc;strokeColor=#d6b656;align=left;spacingLeft=4;" vertex="1" parent="1">
          <mxGeometry x="530" y="450" width="100" height="20" as="geometry" />
        </mxCell>
        <mxCell id="tz6h5x7sEr2cUSnCpIj5-262" value="fieldValue" style="ellipse;fillColor=#fff2cc;strokeColor=#d6b656;align=left;spacingLeft=4;" vertex="1" parent="1">
          <mxGeometry x="530" y="470" width="100" height="20" as="geometry" />
        </mxCell>
        <mxCell id="tz6h5x7sEr2cUSnCpIj5-263" value="validationId" style="ellipse;fillColor=#fff2cc;strokeColor=#d6b656;align=left;spacingLeft=4;fontStyle=4;textDecoration=underline;" vertex="1" parent="1">
          <mxGeometry x="-140" y="600" width="100" height="20" as="geometry" />
        </mxCell>
        <mxCell id="tz6h5x7sEr2cUSnCpIj5-264" value="submissionId" style="ellipse;fillColor=#fff2cc;strokeColor=#d6b656;align=left;spacingLeft=4;" vertex="1" parent="1">
          <mxGeometry x="-140" y="620" width="100" height="20" as="geometry" />
        </mxCell>
        <mxCell id="tz6h5x7sEr2cUSnCpIj5-265" value="email" style="ellipse;fillColor=#fff2cc;strokeColor=#d6b656;align=left;spacingLeft=4;" vertex="1" parent="1">
          <mxGeometry x="-140" y="640" width="100" height="20" as="geometry" />
        </mxCell>
        <mxCell id="tz6h5x7sEr2cUSnCpIj5-266" value="validationToken" style="ellipse;fillColor=#fff2cc;strokeColor=#d6b656;align=left;spacingLeft=4;" vertex="1" parent="1">
          <mxGeometry x="-140" y="660" width="100" height="20" as="geometry" />
        </mxCell>
        <mxCell id="tz6h5x7sEr2cUSnCpIj5-267" value="isValidated" style="ellipse;fillColor=#fff2cc;strokeColor=#d6b656;align=left;spacingLeft=4;" vertex="1" parent="1">
          <mxGeometry x="-140" y="680" width="100" height="20" as="geometry" />
        </mxCell>
        <mxCell id="tz6h5x7sEr2cUSnCpIj5-268" value="sentAt" style="ellipse;fillColor=#fff2cc;strokeColor=#d6b656;align=left;spacingLeft=4;" vertex="1" parent="1">
          <mxGeometry x="-140" y="700" width="100" height="20" as="geometry" />
        </mxCell>
        <mxCell id="tz6h5x7sEr2cUSnCpIj5-269" value="validatedAt" style="ellipse;fillColor=#fff2cc;strokeColor=#d6b656;align=left;spacingLeft=4;" vertex="1" parent="1">
          <mxGeometry x="-140" y="720" width="100" height="20" as="geometry" />
        </mxCell>
      </root>
    </mxGraphModel>
  </diagram>
</mxfile>
